<?xml version="1.0" standalone="no"?>
<!DOCTYPE svg PUBLIC "-//W3C//DTD SVG 20010904//EN"
 "http://www.w3.org/TR/2001/REC-SVG-20010904/DTD/svg10.dtd">
<svg version="1.0" xmlns="http://www.w3.org/2000/svg"
 width="880.000000pt" height="644.000000pt" viewBox="0 0 880.000000 644.000000"
 preserveAspectRatio="xMidYMid meet">

<g transform="translate(0.000000,644.000000) scale(0.100000,-0.100000)"
fill="#000000" stroke="none">
<path d="M2132 5917 c-29 -31 -28 -62 4 -94 l27 -27 -4 -480 -4 -481 22 -3 22
-3 -6 484 -6 485 28 24 c35 30 37 74 5 100 -30 24 -62 23 -88 -5z"/>
<path d="M610 4370 c-29 -29 -26 -74 6 -99 36 -28 49 -27 85 10 l31 32 307 -4
c500 -5 651 -2 651 16 0 14 -57 15 -485 13 -267 -2 -485 0 -485 5 0 16 -42 47
-65 47 -14 0 -34 -9 -45 -20z"/>
<path d="M6201 4363 l-28 -28 -1401 3 c-1399 2 -1402 2 -1402 -18 0 -20 3 -20
1405 -18 1080 2 1406 0 1409 -9 3 -6 16 -19 31 -29 21 -14 30 -14 55 -4 51 21
54 96 5 118 -37 17 -43 15 -74 -15z"/>
<path d="M2650 4320 c0 -19 7 -20 90 -20 83 0 90 1 90 20 0 19 -7 20 -90 20
-83 0 -90 -1 -90 -20z"/>
<path d="M2158 3795 c-3 -3 -3 -220 0 -483 l5 -478 -27 -27 c-32 -32 -33 -67
-3 -95 26 -24 48 -27 78 -11 45 23 42 100 -4 115 -19 6 -20 14 -15 495 5 453
4 489 -12 489 -9 0 -19 -2 -22 -5z"/>
<path d="M5324 3552 c-67 -23 -96 -43 -131 -88 -22 -30 -28 -49 -31 -105 -5
-84 1 -109 34 -149 35 -41 82 -64 199 -96 110 -31 157 -61 139 -91 -28 -45
-138 -40 -249 12 -31 15 -58 25 -59 24 -26 -31 -87 -143 -83 -153 8 -20 130
-65 214 -78 98 -15 217 1 280 38 73 43 110 125 98 220 -12 96 -64 145 -200
185 -145 43 -165 51 -175 70 -8 14 -6 23 11 40 19 19 29 21 81 16 38 -3 83
-17 121 -36 34 -16 62 -29 62 -28 1 1 19 31 41 67 22 36 44 71 48 78 10 16
-99 68 -173 82 -80 15 -169 12 -227 -8z"/>
<path d="M2670 3195 l0 -367 223 4 222 3 60 30 c52 26 64 37 88 84 49 98 32
209 -41 258 l-33 22 26 17 c38 25 55 65 55 132 0 75 -26 118 -95 152 -48 24
-58 25 -277 28 l-228 4 0 -367z m392 188 c22 -19 23 -52 4 -79 -12 -16 -29
-20 -110 -22 l-96 -4 0 61 0 61 92 0 c71 0 95 -4 110 -17z m12 -269 c9 -9 16
-32 16 -54 0 -58 -24 -70 -137 -70 l-93 0 0 70 0 70 99 0 c77 0 103 -4 115
-16z"/>
<path d="M3380 3195 l0 -365 100 0 100 0 0 365 0 365 -100 0 -100 0 0 -365z"/>
<path d="M3690 3195 l0 -365 96 0 96 0 -4 200 c-2 110 0 200 3 200 3 0 10 -10
16 -22 6 -13 68 -103 137 -200 l127 -178 80 0 79 0 0 365 0 365 -96 0 -97 0 5
-185 c3 -102 3 -185 -1 -185 -3 0 -19 22 -34 48 -16 26 -75 109 -130 184
l-102 137 -87 1 -88 0 0 -365z"/>
<path d="M4432 3288 l3 -273 31 -55 c57 -102 173 -151 322 -136 122 13 201 64
244 160 22 48 23 64 26 314 l3 262 -100 0 -101 0 0 -222 c0 -123 -5 -240 -10
-260 -15 -52 -52 -78 -109 -78 -40 0 -52 5 -77 31 l-29 30 -3 250 -3 249 -100
0 -100 0 3 -272z"/>
<path d="M5603 2525 c-68 -35 -100 -92 -83 -154 12 -47 55 -86 110 -101 22 -5
58 -15 81 -21 69 -18 96 -61 65 -105 -23 -30 -139 -27 -184 5 l-33 23 -30 -28
c-35 -33 -29 -43 45 -82 95 -48 236 -27 282 43 24 37 29 106 10 143 -23 44
-62 68 -152 93 -43 12 -85 26 -91 31 -20 16 -16 66 6 78 31 16 93 12 136 -10
l39 -20 28 27 c32 31 27 43 -35 75 -65 33 -133 34 -194 3z"/>
<path d="M2672 2363 c3 -161 5 -182 25 -219 59 -111 195 -144 297 -71 15 11
39 43 52 71 22 47 24 63 24 224 l0 172 -45 0 -45 0 0 -176 0 -176 -34 -34
c-40 -40 -83 -45 -133 -14 -44 27 -53 67 -53 248 l0 152 -46 0 -46 0 4 -177z"/>
<path d="M3210 2290 l0 -250 45 0 45 0 0 165 c0 128 3 163 13 159 6 -3 59 -77
117 -164 l105 -159 43 -1 42 0 0 250 0 250 -51 0 -52 0 5 -155 c3 -86 2 -158
-2 -160 -5 -3 -56 67 -115 155 l-107 160 -44 0 -44 0 0 -250z"/>
<path d="M3762 2293 l3 -248 48 -3 47 -3 0 250 0 251 -50 0 -50 0 2 -247z"/>
<path d="M4027 2388 c30 -84 70 -196 88 -248 l33 -95 44 -3 44 -3 87 245 c48
135 87 248 87 251 0 11 -91 5 -95 -7 -2 -7 -28 -89 -58 -181 -29 -93 -57 -169
-61 -170 -4 -1 -34 80 -67 181 l-60 182 -48 0 -48 0 54 -152z"/>
<path d="M4522 2293 l3 -248 178 -3 177 -2 0 45 0 45 -130 0 -130 0 0 65 0 65
70 0 70 0 0 45 0 45 -70 0 -70 0 0 50 0 50 125 0 125 0 0 45 0 45 -175 0 -175
0 2 -247z"/>
<path d="M5000 2290 l0 -250 45 0 45 0 0 90 0 90 58 0 58 0 44 -90 44 -90 48
0 c26 0 48 2 48 5 0 3 -18 41 -40 85 -22 44 -40 88 -40 97 0 10 14 26 30 35
59 34 79 137 37 199 -12 19 -42 44 -67 57 -39 19 -59 22 -177 22 l-133 0 0
-250z m291 139 c17 -17 20 -29 15 -58 -8 -52 -27 -61 -128 -61 l-88 0 0 70 0
70 90 0 c78 0 93 -3 111 -21z"/>
<path d="M6010 2290 l0 -250 45 0 45 0 0 250 0 250 -45 0 -45 0 0 -250z"/>
<path d="M6220 2495 l0 -45 70 0 70 0 0 -205 0 -205 45 0 45 0 0 205 0 205 75
0 75 0 0 45 0 45 -190 0 -190 0 0 -45z"/>
<path d="M6691 2503 c13 -21 54 -87 91 -146 l68 -108 0 -104 0 -105 45 0 45 0
0 99 0 100 90 144 c50 80 90 148 90 151 0 3 -20 6 -44 6 l-44 0 -61 -105 c-34
-57 -65 -106 -70 -109 -5 -3 -37 44 -72 104 l-64 110 -48 0 -49 0 23 -37z"/>
<path d="M2765 1780 c-66 -15 -105 -59 -105 -121 0 -38 33 -71 90 -91 25 -9
63 -22 85 -30 34 -12 40 -18 40 -43 0 -21 -7 -33 -25 -42 -29 -16 -102 -9
-135 13 -18 12 -24 12 -43 -2 -31 -21 -28 -30 23 -59 135 -80 304 21 241 143
-17 33 -38 45 -131 75 -71 22 -88 42 -67 75 15 22 76 26 116 7 35 -17 38 -17
56 0 27 24 26 28 -17 52 -46 25 -88 32 -128 23z"/>
<path d="M4373 1772 l-33 -16 0 -188 0 -188 30 0 c17 0 33 6 36 13 2 7 3 98 2
203 l-3 191 -32 -15z"/>
<path d="M5026 1771 c-9 -10 -20 -35 -23 -55 -3 -21 -11 -36 -19 -36 -9 0 -14
-12 -14 -35 0 -24 5 -35 15 -35 12 0 15 -22 17 -112 l3 -113 33 -3 32 -3 0
115 0 115 28 3 c23 3 27 8 27 33 0 25 -4 30 -28 33 -24 3 -28 7 -25 30 2 21 9
28 31 30 21 3 27 9 27 28 0 22 -4 24 -43 24 -30 0 -49 -6 -61 -19z"/>
<path d="M3362 1762 c-22 -17 -22 -20 -20 -197 l3 -180 33 -3 32 -3 0 93 c0
111 12 142 57 146 50 5 63 -24 63 -140 l0 -98 35 0 35 0 0 100 c0 176 -44 224
-167 185 -22 -7 -23 -5 -23 54 0 66 -8 74 -48 43z"/>
<path d="M3086 1661 c-44 -29 -70 -77 -70 -131 0 -63 28 -109 83 -137 49 -25
75 -23 129 9 35 21 40 39 17 58 -11 9 -19 8 -37 -4 -30 -21 -81 -20 -101 2
-12 13 -17 37 -17 75 0 46 4 58 22 71 30 21 60 20 90 -4 24 -19 26 -19 42 -1
23 26 20 37 -18 60 -42 26 -102 27 -140 2z"/>
<path d="M3729 1653 c-108 -91 -56 -275 79 -275 65 0 123 68 124 145 2 124
-118 201 -203 130z m109 -49 c18 -13 22 -25 22 -71 0 -63 -18 -93 -57 -93 -12
0 -33 10 -44 21 -18 18 -21 30 -17 77 7 76 44 102 96 66z"/>
<path d="M4063 1660 c-79 -48 -91 -168 -25 -241 52 -57 127 -55 180 6 58 65
55 155 -8 217 -31 31 -45 38 -76 38 -22 0 -53 -9 -71 -20z m93 -48 c18 -12 34
-49 34 -81 0 -67 -32 -100 -85 -87 -48 12 -56 130 -11 161 22 16 45 19 62 7z"/>
<path d="M4719 1657 c-21 -14 -41 -41 -53 -70 -18 -42 -19 -53 -8 -95 41 -152
213 -152 253 0 12 42 11 53 -7 95 -23 55 -71 93 -119 93 -18 0 -47 -10 -66
-23z m105 -56 c40 -45 27 -145 -21 -157 -41 -11 -70 10 -78 55 -15 91 49 157
99 102z"/>
<path d="M3221 1111 c-13 -13 -21 -34 -21 -55 0 -25 -5 -35 -20 -39 -15 -4
-20 -14 -20 -36 0 -24 4 -31 20 -31 19 0 20 -7 20 -115 l0 -115 35 0 35 0 0
115 0 115 25 0 c22 0 25 4 25 35 0 31 -3 35 -26 35 -22 0 -25 4 -22 28 2 21 9
28 31 30 23 3 28 8 25 25 -4 32 -78 37 -107 8z"/>
<path d="M5060 1110 c-15 -28 22 -65 50 -50 22 12 26 40 8 58 -18 18 -46 14
-58 -8z"/>
<path d="M6155 1115 c-55 -19 -85 -57 -85 -104 0 -61 28 -87 126 -116 l84 -26
0 -35 c0 -28 -5 -36 -27 -45 -33 -13 -99 -4 -132 18 -22 14 -25 14 -43 -5 -25
-25 -18 -36 35 -64 111 -56 242 -1 242 104 0 54 -37 87 -133 118 -66 21 -78
29 -80 49 -7 49 55 66 120 32 37 -18 37 -18 58 4 20 21 20 22 1 39 -16 15
-101 47 -120 46 -3 -1 -24 -7 -46 -15z"/>
<path d="M7123 1112 c-29 -14 -33 -21 -33 -53 0 -34 -3 -38 -27 -41 -23 -2
-29 -8 -31 -35 -3 -31 -1 -33 27 -33 l31 0 0 -93 c0 -87 2 -95 25 -117 16 -15
36 -23 56 -22 36 1 44 7 52 42 6 23 3 25 -26 25 l-32 0 -3 83 -3 82 36 0 c33
0 35 2 35 35 0 33 -2 35 -35 35 l-34 0 -3 54 -3 53 -32 -15z"/>
<path d="M2670 920 l0 -200 35 0 35 0 0 200 0 200 -35 0 -35 0 0 -200z"/>
<path d="M4842 1104 c-15 -10 -22 -25 -22 -49 0 -27 -4 -34 -22 -37 -18 -2
-24 -11 -26 -35 -3 -30 -1 -33 22 -33 26 0 26 -1 26 -74 0 -95 14 -134 53
-151 43 -18 87 -2 87 31 0 20 -5 24 -29 24 -36 0 -41 13 -41 101 l0 69 40 0
c39 0 40 1 40 35 0 34 -1 35 -40 35 l-40 0 0 50 c0 54 -10 61 -48 34z"/>
<path d="M2850 870 l0 -150 35 0 35 0 0 104 c0 82 3 108 16 120 18 18 47 20
75 6 17 -10 19 -22 19 -120 l0 -110 35 0 35 0 0 104 c0 58 -4 116 -9 129 -23
59 -81 82 -145 57 -16 -6 -27 -6 -31 0 -4 6 -19 10 -36 10 l-29 0 0 -150z"/>
<path d="M3438 1003 c-108 -67 -80 -256 43 -286 38 -10 108 30 131 73 67 129
-59 284 -174 213z m102 -63 c14 -14 20 -33 20 -68 0 -60 -21 -92 -60 -92 -39
0 -60 32 -60 92 0 53 24 88 60 88 11 0 29 -9 40 -20z"/>
<path d="M3710 870 l0 -150 35 0 35 0 0 104 c0 117 7 131 65 124 31 -4 35 -1
41 25 4 20 2 32 -7 38 -19 12 -56 11 -79 -1 -13 -7 -21 -7 -25 0 -3 5 -19 10
-36 10 l-29 0 0 -150z"/>
<path d="M3960 870 l0 -150 35 0 35 0 0 108 c0 117 6 132 51 132 46 0 59 -31
59 -142 l0 -98 35 0 35 0 0 109 c0 119 7 135 57 129 40 -4 53 -38 53 -146 l0
-93 33 3 32 3 3 75 c5 100 -12 174 -45 200 -31 24 -83 26 -125 4 -29 -15 -34
-15 -59 0 -31 18 -66 20 -103 6 -17 -6 -26 -6 -26 0 0 6 -16 10 -35 10 l-35 0
0 -150z"/>
<path d="M4520 1009 c-31 -13 -32 -13 -24 -33 6 -14 15 -16 60 -10 59 7 84 -4
84 -37 0 -16 -8 -19 -50 -19 -84 0 -130 -35 -130 -98 0 -67 72 -110 143 -86
21 8 37 9 37 4 0 -6 16 -10 35 -10 l35 0 0 110 c0 121 -10 154 -51 176 -32 16
-102 18 -139 3z m118 -184 c4 -34 -18 -55 -58 -55 -33 0 -50 17 -50 50 0 37 7
41 60 38 42 -3 45 -5 48 -33z"/>
<path d="M5060 871 l0 -151 35 0 36 0 -3 148 -3 147 -32 3 -33 3 0 -150z"/>
<path d="M5269 997 c-64 -42 -81 -152 -35 -222 55 -84 175 -73 217 18 34 76
19 150 -40 200 -41 34 -95 36 -142 4z m105 -50 c27 -20 34 -108 12 -142 -19
-29 -60 -33 -88 -8 -13 12 -18 31 -18 74 0 48 4 60 22 73 27 20 48 20 72 3z"/>
<path d="M5544 1007 c-2 -7 -3 -74 -2 -148 l3 -134 38 -3 37 -3 0 108 c0 118
6 133 51 133 50 0 59 -21 59 -136 l0 -104 36 0 36 0 -4 114 c-3 98 -6 119 -24
143 -29 38 -65 50 -114 36 -23 -6 -43 -6 -46 -2 -8 14 -64 10 -70 -4z"/>
<path d="M6424 958 c13 -35 38 -99 55 -143 35 -90 37 -111 16 -162 -19 -46
-20 -45 16 -41 31 3 32 5 105 197 41 107 74 199 74 203 0 5 -14 8 -31 6 -31
-3 -33 -7 -66 -98 -19 -52 -38 -99 -42 -103 -4 -4 -24 38 -43 95 l-35 103 -36
3 -37 3 24 -63z"/>
<path d="M6781 994 c-62 -52 -31 -117 73 -150 51 -16 57 -20 54 -43 -3 -23 -7
-26 -43 -26 -22 1 -54 4 -72 8 -27 7 -32 5 -38 -14 -9 -26 3 -35 66 -48 84
-18 159 19 159 78 0 42 -30 72 -96 97 -45 16 -60 27 -62 44 -4 21 -1 22 63 19
63 -4 84 5 85 33 0 12 -63 28 -111 28 -36 0 -55 -6 -78 -26z"/>
<path d="M7349 993 c-122 -103 -34 -313 115 -272 81 22 64 74 -21 62 -48 -6
-83 14 -83 48 0 16 11 19 93 21 l92 3 -4 35 c-11 112 -115 167 -192 103z m121
-52 c18 -36 12 -41 -50 -41 -62 0 -68 5 -50 41 8 14 21 19 50 19 29 0 42 -5
50 -19z"/>
<path d="M7620 870 l0 -150 35 0 35 0 0 104 c0 114 9 136 55 136 46 0 55 -22
55 -136 l0 -104 35 0 35 0 0 104 c0 114 9 136 55 136 46 0 55 -22 55 -136 l0
-104 35 0 35 0 0 100 c0 110 -13 157 -51 184 -30 21 -83 20 -120 -1 -27 -16
-31 -16 -58 0 -33 19 -68 22 -105 7 -17 -6 -26 -6 -26 0 0 6 -16 10 -35 10
l-35 0 0 -150z"/>
<path d="M8184 1010 c-12 -5 -29 -19 -38 -32 -38 -54 -5 -105 89 -134 61 -20
75 -35 54 -60 -13 -16 -66 -15 -126 2 -16 4 -23 1 -28 -16 -9 -27 3 -36 66
-49 88 -19 159 18 159 83 0 42 -31 71 -101 94 -42 15 -55 24 -57 42 -4 22 -2
23 67 18 39 -3 71 -2 71 3 0 4 3 14 6 22 11 29 -108 49 -162 27z"/>
</g>
</svg>
